<?xml version="1.0" encoding="utf-8"?>
<!-- Generator: Adobe Illustrator 16.0.0, SVG Export Plug-In . SVG Version: 6.00 Build 0)  -->
<!DOCTYPE svg PUBLIC "-//W3C//DTD SVG 1.1//EN" "http://www.w3.org/Graphics/SVG/1.1/DTD/svg11.dtd">
<svg version="1.1" id="Calque_1" xmlns="http://www.w3.org/2000/svg" xmlns:xlink="http://www.w3.org/1999/xlink" x="0px" y="0px"
	 width="20.668px" height="20.668px" viewBox="0 0 20.668 20.668" enable-background="new 0 0 20.668 20.668" xml:space="preserve">
<path fill="#dd223c" d="M10.334,0C4.627,0,0,4.626,0,10.334c0,5.707,4.627,10.334,10.334,10.334s10.334-4.627,10.334-10.334
	C20.668,4.626,16.041,0,10.334,0z M12.8,10.767l2.641,2.641c0.116,0.116,0.116,0.308,0,0.424l-1.729,1.729
	c-0.116,0.116-0.308,0.116-0.424,0l-2.641-2.641c-0.116-0.116-0.308-0.116-0.424,0L7.583,15.56c-0.116,0.116-0.308,0.116-0.424,0
	l-1.729-1.729c-0.116-0.116-0.116-0.308,0-0.424l2.641-2.641c0.116-0.116,0.116-0.308,0-0.424l-2.641-2.64
	c-0.116-0.117-0.116-0.308,0-0.424L7.159,5.55c0.116-0.117,0.308-0.116,0.424,0l2.641,2.641c0.116,0.116,0.308,0.116,0.424,0
	l2.641-2.641c0.116-0.116,0.308-0.117,0.424,0l1.729,1.729c0.116,0.116,0.116,0.307,0,0.424l-2.641,2.64
	C12.684,10.459,12.684,10.65,12.8,10.767z"/>
</svg>
